<svg xmlns="http://www.w3.org/2000/svg" viewBox="0 0 32 32" width="32" height="32">
  <!-- Background circle with gradient -->
  <defs>
    <linearGradient id="globeGradient" x1="0%" y1="0%" x2="100%" y2="100%">
      <stop offset="0%" style="stop-color:#3B82F6;stop-opacity:1" />
      <stop offset="50%" style="stop-color:#1E40AF;stop-opacity:1" />
      <stop offset="100%" style="stop-color:#1E3A8A;stop-opacity:1" />
    </linearGradient>
    <linearGradient id="pulseGradient" x1="0%" y1="0%" x2="100%" y2="100%">
      <stop offset="0%" style="stop-color:#10B981;stop-opacity:0.8" />
      <stop offset="100%" style="stop-color:#059669;stop-opacity:0.6" />
    </linearGradient>
  </defs>

  <!-- Main globe circle -->
  <circle cx="16" cy="16" r="14" fill="url(#globeGradient)" stroke="#60A5FA" stroke-width="1"/>

  <!-- Meridian lines -->
  <path d="M 2 16 Q 16 8 30 16" stroke="#93C5FD" stroke-width="0.5" fill="none" opacity="0.7"/>
  <path d="M 2 16 Q 16 24 30 16" stroke="#93C5FD" stroke-width="0.5" fill="none" opacity="0.7"/>

  <!-- Parallel lines -->
  <path d="M 6 8 Q 16 8 26 8" stroke="#93C5FD" stroke-width="0.5" fill="none" opacity="0.6"/>
  <path d="M 6 24 Q 16 24 26 24" stroke="#93C5FD" stroke-width="0.5" fill="none" opacity="0.6"/>

  <!-- Network nodes (representing data points) -->
  <circle cx="12" cy="12" r="1.5" fill="#10B981" opacity="0.9"/>
  <circle cx="20" cy="10" r="1.2" fill="#F59E0B" opacity="0.8"/>
  <circle cx="22" cy="18" r="1.3" fill="#EF4444" opacity="0.8"/>
  <circle cx="10" cy="20" r="1.1" fill="#8B5CF6" opacity="0.8"/>
  <circle cx="16" cy="16" r="1.8" fill="#06B6D4" opacity="0.9"/>

  <!-- Pulsing rings around center -->
  <circle cx="16" cy="16" r="8" fill="none" stroke="url(#pulseGradient)" stroke-width="1" opacity="0.4">
    <animate attributeName="r" values="8;12;8" dur="2s" repeatCount="indefinite"/>
    <animate attributeName="opacity" values="0.4;0.1;0.4" dur="2s" repeatCount="indefinite"/>
  </circle>

  <!-- Connection lines between nodes -->
  <path d="M 12 12 L 20 10" stroke="#60A5FA" stroke-width="0.8" opacity="0.6"/>
  <path d="M 20 10 L 22 18" stroke="#60A5FA" stroke-width="0.8" opacity="0.6"/>
  <path d="M 22 18 L 10 20" stroke="#60A5FA" stroke-width="0.8" opacity="0.6"/>
  <path d="M 10 20 L 12 12" stroke="#60A5FA" stroke-width="0.8" opacity="0.6"/>
  <path d="M 12 12 L 16 16" stroke="#60A5FA" stroke-width="1" opacity="0.8"/>
  <path d="M 20 10 L 16 16" stroke="#60A5FA" stroke-width="1" opacity="0.8"/>
  <path d="M 22 18 L 16 16" stroke="#60A5FA" stroke-width="1" opacity="0.8"/>
  <path d="M 10 20 L 16 16" stroke="#60A5FA" stroke-width="1" opacity="0.8"/>
</svg>
